<?xml version="1.0" standalone="no"?>
<!DOCTYPE svg PUBLIC "-//W3C//DTD SVG 20010904//EN"
 "http://www.w3.org/TR/2001/REC-SVG-20010904/DTD/svg10.dtd">
<svg version="1.0" xmlns="http://www.w3.org/2000/svg"
 width="326.000000pt" height="326.000000pt" viewBox="0 0 326.000000 326.000000"
 preserveAspectRatio="xMidYMid meet">
<metadata>
Created by potrace 1.14, written by Peter Selinger 2001-2017
</metadata>
<g transform="translate(0.000000,326.000000) scale(0.100000,-0.100000)"
fill="#000000" stroke="none">
<path d="M562 3208 l3 -53 -52 3 -53 4 0 -201 0 -200 103 -3 102 -3 3 -303 c2
-258 0 -306 -13 -325 -8 -12 -15 -17 -15 -11 0 6 -6 11 -14 11 -8 0 -12 -6 -9
-14 3 -7 0 -13 -5 -13 -6 0 -13 8 -15 18 -3 9 -6 -3 -7 -28 l-3 -45 -7 45 c-4
25 -8 -86 -8 -247 -1 -160 -5 -298 -8 -307 -4 -12 -20 -16 -55 -16 l-49 0 0
-50 0 -50 -50 0 -50 0 0 -50 0 -50 -50 0 -50 0 0 -200 0 -200 100 0 100 0 0
-411 0 -411 53 4 52 3 -3 -52 -4 -53 1021 0 1021 0 0 50 0 50 50 0 50 0 0
1425 0 1425 -50 0 -50 0 0 50 0 49 -102 3 -103 3 -3 53 -3 52 -100 0 -99 0 0
50 0 50 -816 0 -816 0 4 -52z"/>
</g>
</svg>
